<svg data-v-0dd9719b="" version="1.0" xmlns="http://www.w3.org/2000/svg" xmlns:xlink="http://www.w3.org/1999/xlink" width="100%" height="100%" viewBox="0 0 340.000000 250.000000" preserveAspectRatio="xMidYMid meet" color-interpolation-filters="sRGB" style="margin: auto;"> <rect data-v-0dd9719b="" x="0" y="0" width="100%" height="100%" fill="#fff" fill-opacity="1" class="background"></rect> <rect data-v-0dd9719b="" x="0" y="0" width="100%" height="100%" fill="url(#watermark)" fill-opacity="1" class="watermarklayer"></rect> <g data-v-0dd9719b="" fill="#333" class="icon-text-wrapper icon-svg-group iconsvg" transform="translate(49.040000915527344,94.96576118469238)"><g class="iconsvg-imagesvg" transform="translate(0,0)"><g><rect fill="#333" fill-opacity="0" stroke-width="2" x="0" y="0" width="60" height="60.068478064994096" class="image-rect"></rect> <svg x="0" y="0" width="60" height="60.068478064994096" filtersec="colorsb6045194800" class="image-svg-svg primary" style="overflow: visible;"><svg xmlns="http://www.w3.org/2000/svg" viewBox="-0.00839904323220253 0.0032493751496076584 126.69839477539062 126.8424072265625"><title>资源 36</title><path d="M97.21 59.23c-7.22 0-14.44.06-21.66 0-5.21-.06-7.74-2.37-7.81-6.82S70.52 45 75.6 45q21.66-.16 43.32 0c4.61 0 7.77 3.21 7.77 7.27 0 4.24-2.82 6.83-7.82 6.9-7.22.09-14.44 0-21.66 0zM29.7 81.78H7.61C3 81.72.12 79.11 0 75a7 7 0 0 1 7.19-7.34q22.3-.25 44.6 0a7.38 7.38 0 0 1 7.5 7.56c-.27 3.87-3.42 6.55-7.9 6.58-7.23.01-14.46-.02-21.69-.02zM67.74 97.19V75.1c0-4.49 2.88-7.48 6.9-7.47s6.84 2.71 6.89 7.1q.19 22.5 0 45c0 4.79-2.85 7.25-7.14 7.11s-6.62-2.83-6.64-7.56c-.04-7.37-.01-14.73-.01-22.09zM59.47 29.64V50.5c0 3.47-1 6.57-4.41 8.15-4.87 2.25-9.72-1-9.75-6.65q-.09-22.09 0-44.19c0-4.74 2.39-7.5 6.53-7.79 3.81-.28 7.31 2.98 7.51 7.53.26 6.12.1 12.27.12 18.4.01 1.23 0 2.46 0 3.69z" fill="#fbb355"></path><path d="M41 104.47c-3.69 0-7.37.11-11.05 0-4.55-.19-7.23-3-7.25-7.16s2.79-7.06 7.27-7.15c7.22-.15 14.46-.14 21.68 0 4.48.09 7.81 3.48 7.71 7.41-.1 3.77-3.34 6.76-7.72 6.91-3.64.1-7.15 0-10.64-.01zM36.82 41c0 3.54.16 7.09 0 10.62-.27 4.83-3.14 7.65-7.35 7.55-4.43-.1-6.76-2.74-6.79-7.85q-.06-10.41 0-20.83c0-4.67 2.49-7.62 6.46-7.92s7.36 2.86 7.66 7.4c.2 3.67.02 7.35.02 11.03zM85.85 36.63H74.42c-3.62 0-5.91-1.92-6.58-5.46-.75-3.91.91-6.74 4.52-8a9.69 9.69 0 0 1 3.16-.69c6.93-.06 13.88-.18 20.81 0 5.17.14 8.15 3.46 7.72 8-.34 3.63-2.67 6-6.36 6.15-3.94.1-7.89-.01-11.84 0zM104.11 86.19c0 3.68.09 7.36 0 11-.13 4.08-2.72 6.89-6.38 7.17s-7.06-2-7.27-6.05c-.43-8-.5-16-.17-24a6.75 6.75 0 0 1 7.33-6.67c3.78.26 6.39 3.18 6.5 7.52.07 3.66-.01 7.35-.01 11.03z" fill="#fa6663"></path></svg></svg> <!----></g></g> <g transform="translate(67,2.147991180419922)"><g data-gra="path-name" fill-rule="" class="tp-name iconsvg-namesvg" transform="translate(0,0)"><g transform="scale(1)"><g><path d="M24.66-31.95L43.16-31.95 43.16-29.7Q43.16-29.43 42.95-29.23 42.75-29.02 42.48-29.02L42.48-29.02 24.66-29.02 24.66-25.15 40.27-25.15 40.27-0.67Q40.27 4.05 35.55 4.05L35.55 4.05 28.44 4.05 28.44 1.13 33.75 1.13Q35.32 1.13 35.32-0.45L35.32-0.45 35.32-22.23 9.67-22.23 9.67 3.46Q9.67 3.73 9.47 3.94 9.27 4.14 9 4.14L9 4.14 4.72 4.14 4.72-25.15 19.71-25.15 19.71-29.02 2.07-29.02 2.07-31.95 19.71-31.95 19.71-36.23 24.66-36.23 24.66-31.95ZM33.66-4.86L24.93-4.86 24.93 2.34Q24.93 2.61 24.73 2.81 24.52 3.01 24.25 3.01L24.25 3.01 19.98 3.01 19.98-4.86 10.57-4.86 10.57-7.79 19.98-7.79 19.98-12.11 10.89-12.11 10.89-15.03 16.88-15.03Q14.49-18.04 11.88-21.15L11.88-21.15 17.28-21.15Q19.04-18.63 20.97-15.03L20.97-15.03 24.48-15.03Q26.86-18.54 27.72-21.2L27.72-21.2 33.12-21.2Q31.32-18.18 28.57-15.03L28.57-15.03 34.06-15.03 34.06-12.78Q34.06-12.51 33.86-12.31 33.66-12.11 33.39-12.11L33.39-12.11 24.93-12.11 24.93-7.79 34.34-7.79 34.34-5.54Q34.34-5.26 34.13-5.06 33.93-4.86 33.66-4.86L33.66-4.86ZM87.3-29.07Q87.3-28.8 87.1-28.6 86.89-28.39 86.63-28.39L86.63-28.39 47.74-28.39 47.74-31.32 64.84-31.32Q63.09-33.93 61.02-36.23L61.02-36.23 66.42-36.23Q67.91-34.34 69.34-31.32L69.34-31.32 87.3-31.32 87.3-29.07ZM78.07-11.34L70.29-11.34 70.29-0.77Q70.29 3.96 65.56 3.96L65.56 3.96 57.91 3.96 57.91 1.03 63.77 1.03Q65.34 1.03 65.34-0.54L65.34-0.54 65.34-11.34 52.11-11.34 52.11-24.84 82.8-24.84 82.8-16.06Q82.8-11.34 78.07-11.34L78.07-11.34ZM57.06-21.91L57.06-14.26 76.28-14.26Q77.85-14.26 77.85-15.84L77.85-15.84 77.85-21.91 57.06-21.91ZM55.3-8.82L60.25-8.82Q59.22-6.25 57.15-3.73 55.08-1.21 52.47 0.65 49.86 2.52 47.34 3.19L47.34 3.19 47.34 0.04Q49.77-1.13 51.52-3.24 53.28-5.35 55.3-8.82L55.3-8.82ZM79.65-8.82Q81.67-5.35 83.43-3.24 85.19-1.13 87.61 0.04L87.61 0.04 87.61 3.19Q85.09 2.52 82.48 0.65 79.88-1.21 77.81-3.73 75.73-6.25 74.7-8.82L74.7-8.82 79.65-8.82ZM115.69-12.69L133.02-12.69 133.02-10.44Q133.02-10.17 132.82-9.97 132.62-9.76 132.34-9.76L132.34-9.76 115.69-9.76 115.69 3.92Q115.69 4.18 115.49 4.39 115.29 4.59 115.02 4.59L115.02 4.59 110.75 4.59 110.75-9.76 92.07-9.76 92.07-12.69 110.75-12.69 110.75-24.3 103.05-24.3Q101.97-21.29 99.94-19.13 97.92-16.96 94.36-15.39L94.36-15.39 94.36-18.77Q96.93-20.97 98.1-24.3 99.27-27.63 99.99-33.66L99.99-33.66 104.94-33.66Q104.4-29.61 103.91-27.22L103.91-27.22 110.75-27.22 110.75-36.23 115.69-36.23 115.69-27.22 129.96-27.22 129.96-24.97Q129.96-24.7 129.76-24.5 129.56-24.3 129.28-24.3L129.28-24.3 115.69-24.3 115.69-12.69ZM141.79-8.64L141.79-22.63 153.68-22.63 153.68-36.23 158.63-36.23 158.63-31.05 176.04-31.05 176.04-28.8Q176.04-28.53 175.84-28.33 175.63-28.13 175.37-28.13L175.37-28.13 158.63-28.13 158.63-22.63 173.2-22.63 173.2-13.37Q173.2-8.64 168.48-8.64L168.48-8.64 141.79-8.64ZM168.25-19.71L146.75-19.71 146.75-11.56 166.68-11.56Q168.25-11.56 168.25-13.14L168.25-13.14 168.25-19.71ZM172.8-6.75Q174.1-4.37 175.37-1.24 176.63 1.89 176.99 3.65L176.99 3.65 173.16 3.65Q173.07 3.38 171.72-0.09 170.37-3.55 167.85-6.75L167.85-6.75 172.8-6.75ZM137.79 3.65Q138.78 2.25 140.26-1.19 141.75-4.63 141.97-6.71L141.97-6.71 146.93-6.71Q145.71-3.51 144.31-0.65 142.92 2.21 141.62 3.65L141.62 3.65 137.79 3.65ZM157.95-6.71L162.9-6.71Q164.16-4.32 165.44-1.19 166.72 1.93 167.09 3.65L167.09 3.65 163.26 3.65Q163.13 3.33 161.78-0.11 160.43-3.55 157.95-6.71L157.95-6.71ZM148.5-6.48L153.45-6.48Q154.71-4.14 155.99-1.03 157.28 2.07 157.63 3.65L157.63 3.65 153.81 3.65 153.31 2.48Q150.88-3.46 148.5-6.48L148.5-6.48Z" transform="translate(-2.069999933242798, 36.22999954223633)"></path></g> <!----> <!----> <!----> <!----> <!----> <!----> <!----></g></g> <g data-gra="path-slogan" fill-rule="" class="tp-slogan iconsvg-slogansvg" fill="#333" transform="translate(5,46.81999969482422)"><rect x="0" height="1" y="3.9750003814697266" width="27.875"></rect> <rect height="1" y="3.9750003814697266" width="27.875" x="137.0449981689453"></rect> <g transform="translate(30.875,0)"><g transform="scale(1)"><path d="M2.30-8.58L6.61-1.64L6.61-8.58L7.73-8.58L7.73 0L6.42 0L2.06-6.94L2.02-6.94L2.02 0L0.89 0L0.89-8.58L2.30-8.58ZM15.19 0L14.34-2.48L10.88-2.48L9.98 0L8.81 0L12.05-8.58L13.36-8.58L16.45 0L15.19 0ZM12.61-7.31L11.25-3.52L13.92-3.52L12.66-7.31L12.61-7.31ZM18.89-8.58L23.20-1.64L23.20-8.58L24.33-8.58L24.33 0L23.02 0L18.66-6.94L18.61-6.94L18.61 0L17.48 0L17.48-8.58L18.89-8.58ZM25.41-1.92L25.41-2.77L26.48-2.77L26.48-2.16Q26.48-0.75 27.80-0.75L27.80-0.75Q29.16-0.75 29.16-2.25L29.16-2.25L29.16-8.58L30.33-8.58L30.33-2.30Q30.28 0.09 27.84 0.14L27.84 0.14Q25.55 0.09 25.41-1.92L25.41-1.92ZM32.30-8.58L33.47-8.58L33.47 0L32.30 0L32.30-8.58ZM36.84-8.58L41.16-1.64L41.16-8.58L42.28-8.58L42.28 0L40.97 0L36.61-6.94L36.56-6.94L36.56 0L35.44 0L35.44-8.58L36.84-8.58ZM50.48-3.61L47.86-3.61L47.86-4.59L51.61-4.59L51.61 0L50.86 0L50.58-1.08Q49.59 0.09 47.77 0.14L47.77 0.14Q46.03 0.14 45.09-0.75L45.09-0.75Q43.69-2.06 43.73-4.36L43.73-4.36Q44.06-8.63 47.81-8.81L47.81-8.81Q51-8.63 51.47-6L51.47-6L50.34-6Q49.88-7.78 47.77-7.83L47.77-7.83Q45.09-7.64 44.95-4.31L44.95-4.31Q44.95-0.75 47.81-0.75L47.81-0.75Q48.84-0.75 49.59-1.31L49.59-1.31Q50.53-2.06 50.48-3.61L50.48-3.61ZM58.13-8.58L62.44-1.64L62.44-8.58L63.56-8.58L63.56 0L62.25 0L57.89-6.94L57.84-6.94L57.84 0L56.72 0L56.72-8.58L58.13-8.58ZM65.53-8.58L66.70-8.58L66.70 0L65.53 0L65.53-8.58ZM74.34-3.19L74.34-8.58L75.52-8.58L75.52-3.05Q75.38 0.05 72 0.14L72 0.14Q68.86 0.05 68.72-2.86L68.72-2.86L68.72-8.58L69.89-8.58L69.89-3.19Q69.94-0.84 72.05-0.80L72.05-0.80Q74.34-0.84 74.34-3.19L74.34-3.19ZM80.81 0L77.34 0L77.34-8.58L80.86-8.58Q84.33-8.39 84.47-4.41L84.47-4.41Q84.28-0.09 80.81 0L80.81 0ZM80.67-7.64L78.52-7.64L78.52-0.98L80.77-0.98Q83.20-1.13 83.30-4.31L83.30-4.31Q83.25-7.55 80.67-7.64L80.67-7.64ZM86.11-8.58L87.28-8.58L87.28 0L86.11 0L86.11-8.58ZM94.92 0L94.08-2.48L90.61-2.48L89.72 0L88.55 0L91.78-8.58L93.09-8.58L96.19 0L94.92 0ZM92.34-7.31L90.98-3.52L93.66-3.52L92.39-7.31L92.34-7.31ZM98.63-8.58L102.94-1.64L102.94-8.58L104.06-8.58L104.06 0L102.75 0L98.39-6.94L98.34-6.94L98.34 0L97.22 0L97.22-8.58L98.63-8.58Z" transform="translate(-0.890625, 8.8125)"></path></g></g></g></g></g><defs v-gra="od"></defs></svg>